<svg width="56" height="56" viewBox="0 0 56 56" fill="none" xmlns="http://www.w3.org/2000/svg">
<path fill-rule="evenodd" clip-rule="evenodd" d="M3.81836 33.7273C3.81836 34.4311 4.38854 35 5.09109 35H36.9093V32.4546H5.09109C4.38854 32.4546 3.81836 33.0235 3.81836 33.7273ZM50.9093 40.091H42.0002C41.2964 40.091 40.7275 40.6599 40.7275 41.3637C40.7275 42.0675 41.2964 42.6364 42.0002 42.6364H50.9093C51.6131 42.6364 52.182 42.0675 52.182 41.3637C52.182 40.6599 51.6131 40.091 50.9093 40.091Z" fill="#2659CF"/>
<path d="M53.4545 15.9091H45.8182V9.54545C45.8182 8.14036 44.6778 7 43.2727 7H2.54545C1.14036 7 0 8.14036 0 9.54545V37.5455C0 38.9505 1.14036 40.0909 2.54545 40.0909H14V46.4545H11.4545C10.752 46.4545 10.1818 47.0235 10.1818 47.7273C10.1818 48.4311 10.752 49 11.4545 49H34.3636C35.0675 49 35.6364 48.4311 35.6364 47.7273C35.6364 47.0235 35.0675 46.4545 34.3636 46.4545H31.8182V40.0909H36.9091V45.1818C36.9091 46.5869 38.0495 47.7273 39.4545 47.7273H53.4545C54.8596 47.7273 56 46.5869 56 45.1818V18.4545C56 17.0495 54.8596 15.9091 53.4545 15.9091ZM29.2727 46.4545H16.5455V40.0909H29.2727V46.4545ZM36.9091 18.4545V37.5455H2.54545V9.54545H43.2727V15.9091H39.4545C38.0495 15.9091 36.9091 17.0495 36.9091 18.4545ZM53.4545 45.1818H39.4545V18.4545H53.4545V45.1818Z" fill="#2659CF"/>
</svg>
