<svg width="144" height="144" viewBox="0 0 144 144" fill="none" xmlns="http://www.w3.org/2000/svg">
<path d="M125.2 24.9816C137.012 38.3461 143.361 55.6665 142.984 73.4985C142.608 91.3305 135.534 108.368 123.169 121.222C110.804 134.076 94.0536 141.805 76.2496 142.873C58.4457 143.94 40.8921 138.268 27.0797 126.983C13.2673 115.699 4.20803 99.6292 1.70348 81.9699C-0.80107 64.3107 3.43258 46.3557 13.5625 31.6756C23.6924 16.9955 38.9765 6.66573 56.3752 2.7406C73.7738 -1.18452 92.0125 1.58253 107.464 10.4915" stroke="#2659CF" stroke-width="2"/>
<path d="M99.6675 45.7726C87.1976 49.3273 84.914 59.4084 85.7189 65.8125C76.8237 55.356 77.1876 43.327 77.1876 26C48.6562 36.7579 55.2907 67.7691 54.4375 77.1875C47.2628 71.3123 45.9063 57.2812 45.9063 57.2812C38.3305 61.1799 34.5312 71.5881 34.5312 80.0312C34.5312 100.449 51.0819 117 71.5 117C91.9182 117 108.469 100.449 108.469 80.0312C108.469 67.897 99.5593 62.3004 99.6675 45.7726ZM72.922 111.312C54.8613 111.312 40.2189 96.0728 40.2189 78.9648C40.2189 74.9893 40.307 71.7674 43.0626 68.6562C42.7612 70.4563 47.0353 85.8752 60.9924 85.0674C60.3867 73.354 57.2189 44.6578 71.9352 34.7388C70.6327 50.3339 74.4519 71.2839 91.4889 74.3437C90.5135 68.0903 90.6272 57.685 95.0095 55.7627C95.4788 65.3432 102.565 71.2554 102.565 80.4635C102.565 97.1364 86.4327 111.312 72.922 111.312Z" fill="#2659CF"/>
</svg>
