<svg width="50" height="56" viewBox="0 0 50 56" fill="none" xmlns="http://www.w3.org/2000/svg">
<path d="M46.8753 26.25C46.5497 26.2476 46.2329 26.1314 45.9691 25.9175L25.0003 9.15248L4.03159 25.9175C3.69518 26.1406 3.29631 26.2144 2.91371 26.1243C2.53111 26.0341 2.19258 25.7866 1.96496 25.4306C1.73734 25.0745 1.63716 24.6359 1.68421 24.2012C1.73126 23.7664 1.92211 23.3673 2.21909 23.0825L24.0941 5.58248C24.3587 5.37146 24.6755 5.25806 25.0003 5.25806C25.3252 5.25806 25.642 5.37146 25.9066 5.58248L47.7816 23.0825C48.0484 23.2988 48.2473 23.604 48.35 23.9544C48.4526 24.3049 48.4538 24.6828 48.3533 25.034C48.2528 25.3853 48.0558 25.692 47.7903 25.9104C47.5249 26.1288 47.2047 26.2476 46.8753 26.25Z" fill="#2659CF"/>
<path d="M7.8125 15.75C7.3981 15.75 7.00067 15.5656 6.70765 15.2374C6.41462 14.9092 6.25 14.4641 6.25 14V7C6.25 6.53587 6.41462 6.09075 6.70765 5.76256C7.00067 5.43437 7.3981 5.25 7.8125 5.25H14.0625C14.4769 5.25 14.8743 5.43437 15.1674 5.76256C15.4604 6.09075 15.625 6.53587 15.625 7C15.625 7.46413 15.4604 7.90925 15.1674 8.23744C14.8743 8.56563 14.4769 8.75 14.0625 8.75H9.375V14C9.375 14.4641 9.21038 14.9092 8.91735 15.2374C8.62433 15.5656 8.2269 15.75 7.8125 15.75Z" fill="#2659CF"/>
<path d="M39.0625 50.75H31.25C30.8356 50.75 30.4382 50.5656 30.1451 50.2374C29.8521 49.9093 29.6875 49.4641 29.6875 49V36.75H20.3125V49C20.3125 49.4641 20.1479 49.9093 19.8549 50.2374C19.5618 50.5656 19.1644 50.75 18.75 50.75H10.9375C9.6943 50.75 8.50201 50.1969 7.62294 49.2123C6.74386 48.2277 6.25 46.8924 6.25 45.5V28C6.25 27.5359 6.41462 27.0908 6.70765 26.7626C7.00067 26.4344 7.3981 26.25 7.8125 26.25C8.2269 26.25 8.62433 26.4344 8.91735 26.7626C9.21038 27.0908 9.375 27.5359 9.375 28V45.5C9.375 45.9641 9.53962 46.4093 9.83265 46.7374C10.1257 47.0656 10.5231 47.25 10.9375 47.25H17.1875V35C17.1875 34.5359 17.3521 34.0908 17.6451 33.7626C17.9382 33.4344 18.3356 33.25 18.75 33.25H31.25C31.6644 33.25 32.0618 33.4344 32.3549 33.7626C32.6479 34.0908 32.8125 34.5359 32.8125 35V47.25H39.0625C39.4769 47.25 39.8743 47.0656 40.1674 46.7374C40.4604 46.4093 40.625 45.9641 40.625 45.5V28C40.625 27.5359 40.7896 27.0908 41.0826 26.7626C41.3757 26.4344 41.7731 26.25 42.1875 26.25C42.6019 26.25 42.9993 26.4344 43.2924 26.7626C43.5854 27.0908 43.75 27.5359 43.75 28V45.5C43.75 46.8924 43.2561 48.2277 42.3771 49.2123C41.498 50.1969 40.3057 50.75 39.0625 50.75Z" fill="#2659CF"/>
</svg>
