<svg width="144" height="144" viewBox="0 0 144 144" fill="none" xmlns="http://www.w3.org/2000/svg">
<path d="M125.2 24.9816C137.012 38.3461 143.361 55.6665 142.984 73.4985C142.608 91.3305 135.534 108.368 123.169 121.222C110.804 134.076 94.0536 141.805 76.2496 142.873C58.4457 143.94 40.8921 138.268 27.0797 126.983C13.2673 115.699 4.20803 99.6292 1.70348 81.9699C-0.80107 64.3107 3.43258 46.3557 13.5625 31.6756C23.6924 16.9955 38.9765 6.66573 56.3752 2.7406C73.7738 -1.18452 92.0125 1.58253 107.464 10.4915" stroke="#2659CF" stroke-width="2"/>
<path d="M104.903 78.6929C104.484 78.6929 104.073 78.4796 103.839 78.094C101.613 74.4308 98.1511 71.7008 94.0881 70.4069C93.434 70.199 93.0714 69.4987 93.2794 68.8447C93.4873 68.1906 94.1876 67.828 94.8416 68.0377C99.477 69.5147 103.426 72.6268 105.962 76.8036C106.32 77.3901 106.133 78.1562 105.545 78.5134C105.346 78.636 105.124 78.6929 104.903 78.6929Z" fill="#2659CF"/>
<path d="M48.5345 75.0209C48.4101 75.0209 48.2821 75.0014 48.1559 74.9623C42.8257 73.2649 38.4019 69.3796 36.0185 64.3035C35.727 63.6814 35.9936 62.9403 36.6157 62.6488C37.2377 62.3555 37.9789 62.6239 38.2704 63.246C40.3605 67.6965 44.2387 71.1036 48.9113 72.5913C49.5654 72.7992 49.928 73.4995 49.72 74.1536C49.5512 74.6832 49.0606 75.0209 48.5345 75.0209Z" fill="#2659CF"/>
<path d="M88.7442 78.6947C88.0564 78.6947 87.5001 78.1384 87.5001 77.4505V67.2521H55.499V76.2064H81.7824C82.4702 76.2064 83.0265 76.7627 83.0265 77.4505C83.0265 78.1384 82.4702 78.6947 81.7824 78.6947H54.2549C53.5671 78.6947 53.0107 78.1384 53.0107 77.4505V66.008C53.0107 65.3202 53.5671 64.7639 54.2549 64.7639H88.7442C89.4321 64.7639 89.9884 65.3202 89.9884 66.008V77.4505C89.9884 78.1366 89.4321 78.6947 88.7442 78.6947Z" fill="#2659CF"/>
<path d="M109.763 114.601H98.3203C97.6325 114.601 97.0762 114.044 97.0762 113.356V91.3672C97.0762 90.6793 97.6325 90.123 98.3203 90.123H109.763C110.451 90.123 111.007 90.6793 111.007 91.3672C111.007 92.055 110.451 92.6113 109.763 92.6113H99.5645V112.112H108.519V96.3028C108.519 95.615 109.075 95.0587 109.763 95.0587C110.451 95.0587 111.007 95.615 111.007 96.3028V113.356C111.007 114.044 110.451 114.601 109.763 114.601Z" fill="#2659CF"/>
<path d="M44.5166 43.6366C44.4366 43.6366 44.3549 43.6295 44.2749 43.6135C44.1949 43.5975 44.1167 43.5726 44.0421 43.5424C43.9656 43.5104 43.8945 43.4731 43.827 43.4269C43.7577 43.3824 43.6955 43.3309 43.6368 43.2722C43.5799 43.2154 43.5284 43.1514 43.4822 43.0838C43.4378 43.0163 43.3987 42.9434 43.3684 42.8688C43.3364 42.7941 43.3133 42.7159 43.2973 42.6359C43.2813 42.556 43.2725 42.4742 43.2725 42.3925C43.2725 42.3125 43.2813 42.2307 43.2973 42.1507C43.3133 42.0708 43.3364 41.9925 43.3684 41.9179C43.3987 41.8415 43.4378 41.7704 43.4822 41.7028C43.5284 41.6335 43.5799 41.5713 43.6368 41.5127C43.6955 41.4558 43.7577 41.4042 43.827 41.358C43.8945 41.3136 43.9656 41.2745 44.0421 41.2443C44.1167 41.2141 44.1949 41.1892 44.2731 41.1732C44.4348 41.1412 44.6001 41.1412 44.7601 41.1732C44.8401 41.1892 44.9183 41.2141 44.9929 41.2443C45.0676 41.2745 45.1404 41.3136 45.208 41.358C45.2755 41.4042 45.3395 41.4558 45.3964 41.5127C45.455 41.5713 45.5066 41.6335 45.551 41.7028C45.5972 41.7704 45.6346 41.8415 45.6665 41.9179C45.6968 41.9925 45.7216 42.0708 45.7376 42.1507C45.7536 42.2307 45.7607 42.3125 45.7607 42.3925C45.7607 42.4742 45.7536 42.556 45.7376 42.6359C45.7216 42.7159 45.6968 42.7941 45.6665 42.8688C45.6346 42.9434 45.5972 43.0163 45.551 43.0838C45.5066 43.1514 45.455 43.2154 45.3964 43.2722C45.3395 43.3309 45.2755 43.3824 45.208 43.4269C45.1404 43.4731 45.0676 43.5104 44.9929 43.5424C44.9183 43.5726 44.8401 43.5975 44.7601 43.6135C44.6801 43.6295 44.5984 43.6366 44.5166 43.6366Z" fill="#2659CF"/>
<path d="M44.5168 52.877H33.0742C32.3864 52.877 31.8301 52.3207 31.8301 51.6329V29.6436C31.8301 28.9557 32.3864 28.3994 33.0742 28.3994H44.5168C45.2046 28.3994 45.7609 28.9557 45.7609 29.6436V38.7631C45.7609 39.4509 45.2046 40.0072 44.5168 40.0072C43.8289 40.0072 43.2726 39.4509 43.2726 38.7631V30.8877H34.3184V50.3887H43.2726V46.3257C43.2726 45.6379 43.8289 45.0816 44.5168 45.0816C45.2046 45.0816 45.7609 45.6379 45.7609 46.3257V51.6329C45.7609 52.3207 45.2046 52.877 44.5168 52.877Z" fill="#2659CF"/>
<path d="M113.356 92.6113H95.1329C94.4451 92.6113 93.8888 92.055 93.8888 91.3671V87.2295C93.8888 84.3928 91.5818 82.0841 88.7451 82.0841C88.0573 82.0841 87.501 81.5278 87.501 80.8399V62.6168C87.501 61.929 88.0573 61.3727 88.7451 61.3727C103.001 61.3727 114.6 72.9716 114.6 87.2277V91.3654C114.6 92.055 114.044 92.6113 113.356 92.6113ZM96.377 90.123H112.112V87.2295C112.112 74.7614 102.297 64.5435 89.9893 63.8947V79.6989C93.6079 80.2943 96.377 83.4455 96.377 87.2313V90.123Z" fill="#2659CF"/>
<path d="M54.2544 81.6273C48.654 81.6273 43.322 79.8588 38.8324 76.5121C38.2814 76.1015 38.1677 75.3213 38.5783 74.7703C38.9888 74.2193 39.7691 74.1056 40.3201 74.5161C44.0418 77.2906 48.407 78.8653 53.0103 79.1052V63.3011C49.3916 62.7057 46.6225 59.5545 46.6225 55.7687V52.8752H30.8877V55.7687C30.8877 60.6653 32.3931 65.3557 35.2404 69.3352C35.6403 69.8933 35.5123 70.6718 34.9525 71.0717C34.3944 71.4716 33.6159 71.3436 33.216 70.7837C30.0648 66.3795 28.3994 61.1878 28.3994 55.7705V51.6328C28.3994 50.945 28.9557 50.3887 29.6436 50.3887H47.8667C48.5545 50.3887 49.1108 50.945 49.1108 51.6328V55.7705C49.1108 58.6071 51.4178 60.9159 54.2544 60.9159C54.9423 60.9159 55.4986 61.4722 55.4986 62.1601V80.3832C55.4986 81.0692 54.9423 81.6273 54.2544 81.6273Z" fill="#2659CF"/>
</svg>
