<svg width="56" height="56" viewBox="0 0 56 56" fill="none" xmlns="http://www.w3.org/2000/svg">
<path d="M28 54.2501C27.6214 54.2501 27.2529 54.1273 26.95 53.9001L19.95 48.6501C19.7327 48.4871 19.5563 48.2757 19.4348 48.0327C19.3133 47.7897 19.25 47.5218 19.25 47.2501V30.5726C16.4405 28.6954 14.3091 25.9644 13.1708 22.783C12.0324 19.6016 11.9473 16.1384 12.9282 12.905C13.909 9.67149 15.9037 6.83918 18.6177 4.82633C21.3317 2.81348 24.621 1.72681 28 1.72681C31.379 1.72681 34.6683 2.81348 37.3823 4.82633C40.0963 6.83918 42.091 9.67149 43.0718 12.905C44.0527 16.1384 43.9676 19.6016 42.8292 22.783C41.6909 25.9644 39.5595 28.6954 36.75 30.5726V33.2501C36.7513 33.4804 36.7072 33.7087 36.6201 33.9219C36.533 34.1352 36.4047 34.3291 36.2425 34.4926L33.9675 36.7501L36.2425 39.0076C36.4065 39.1703 36.5367 39.3638 36.6256 39.5771C36.7144 39.7904 36.7601 40.0191 36.7601 40.2501C36.7601 40.4811 36.7144 40.7099 36.6256 40.9231C36.5367 41.1364 36.4065 41.3299 36.2425 41.4926L33.9675 43.7501L36.2425 46.0076C36.4201 46.1854 36.5574 46.3993 36.645 46.6348C36.7326 46.8703 36.7684 47.122 36.75 47.3726C36.7319 47.6233 36.66 47.8672 36.5392 48.0877C36.4184 48.3081 36.2516 48.4999 36.05 48.6501L29.05 53.9001C28.7471 54.1273 28.3786 54.2501 28 54.2501ZM22.75 46.3751L28 50.3126L32.34 47.0576L30.2575 44.9926C30.0935 44.8299 29.9633 44.6364 29.8744 44.4231C29.7856 44.2099 29.7399 43.9811 29.7399 43.7501C29.7399 43.5191 29.7856 43.2904 29.8744 43.0771C29.9633 42.8638 30.0935 42.6703 30.2575 42.5076L32.5325 40.2501L30.2575 37.9926C30.0935 37.8299 29.9633 37.6364 29.8744 37.4231C29.7856 37.2099 29.7399 36.9811 29.7399 36.7501C29.7399 36.5191 29.7856 36.2904 29.8744 36.0771C29.9633 35.8638 30.0935 35.6703 30.2575 35.5076L33.25 32.5326V29.6101C33.2518 29.3047 33.3336 29.0051 33.4871 28.7411C33.6406 28.4771 33.8605 28.2578 34.125 28.1051C36.4604 26.7568 38.2856 24.6755 39.3175 22.1842C40.3495 19.6928 40.5305 16.9305 39.8326 14.3258C39.1346 11.721 37.5967 9.41933 35.4573 7.77772C33.3179 6.1361 30.6966 5.2463 28 5.2463C25.3034 5.2463 22.6821 6.1361 20.5427 7.77772C18.4033 9.41933 16.8654 11.721 16.1674 14.3258C15.4695 16.9305 15.6505 19.6928 16.6825 22.1842C17.7144 24.6755 19.5396 26.7568 21.875 28.1051C22.1395 28.2578 22.3594 28.4771 22.5129 28.7411C22.6664 29.0051 22.7482 29.3047 22.75 29.6101V46.3751Z" fill="#2659CF"/>
<path d="M28 15.75C28.9665 15.75 29.75 14.9665 29.75 14C29.75 13.0335 28.9665 12.25 28 12.25C27.0335 12.25 26.25 13.0335 26.25 14C26.25 14.9665 27.0335 15.75 28 15.75Z" fill="#2659CF"/>
<path d="M28 17.5C27.3078 17.5 26.6311 17.2947 26.0555 16.9101C25.4799 16.5256 25.0313 15.9789 24.7664 15.3394C24.5015 14.6999 24.4322 13.9961 24.5673 13.3172C24.7023 12.6383 25.0356 12.0146 25.5251 11.5251C26.0146 11.0356 26.6383 10.7023 27.3172 10.5673C27.9961 10.4322 28.6999 10.5015 29.3394 10.7664C29.9789 11.0313 30.5256 11.4799 30.9101 12.0555C31.2947 12.6311 31.5 13.3078 31.5 14C31.5 14.9283 31.1313 15.8185 30.4749 16.4749C29.8185 17.1313 28.9283 17.5 28 17.5Z" fill="#2659CF"/>
</svg>
