<svg width="109" height="53" viewBox="0 0 109 53" fill="none" xmlns="http://www.w3.org/2000/svg">
<path d="M37.2988 0.101418C37.2542 0.201659 37.2542 0.50238 37.3433 0.752981C37.4324 1.10382 37.7664 1.25418 38.6794 1.37948C40.3049 1.57997 41.5742 2.18141 42.0195 2.93321C42.554 3.8855 42.7989 7.06813 42.7989 13.7341V19.8237H45.6937H48.5885V14.6112C48.6108 4.1361 48.7666 2.98333 50.3922 1.90575C51.038 1.47972 51.5278 1.40454 53.9328 1.4296C57.3842 1.45466 58.7871 1.95587 60.4349 3.81032C62.1941 5.79006 62.8398 8.04548 62.8398 12.2305C62.8398 15.2127 62.5949 17.017 61.9269 18.7461L61.526 19.8237H63.9087H66.2913L67.0039 18.6208C68.3845 16.2903 69.0748 13.9095 69.0748 11.5288C69.0525 6.31633 66.2245 2.50719 61.0584 0.752981C59.4551 0.201659 58.9653 0.176599 48.4104 0.051298C42.3536 -0.0238824 37.3656 -0.0238824 37.2988 0.101418Z" fill="white"/>
<path d="M42.7548 41.0496C42.6212 48.6177 42.4876 49.2943 40.9511 50.1213C40.4389 50.397 39.4369 50.6977 38.7466 50.7729C37.5887 50.9483 37.4551 51.0235 37.4551 51.5247V52.1011L48.4331 52.1261C55.3806 52.1512 59.8786 52.051 60.7248 51.8755C66.7594 50.6476 70.7898 46.9387 72.0813 41.4756C72.4376 39.9219 72.5712 36.7142 72.304 35.386L72.1481 34.6091H69.0529H65.9577V37.6664C65.9577 40.9994 65.6682 42.6033 64.733 44.7585C63.0852 48.5676 58.6094 50.8481 53.2651 50.5975C48.9229 50.397 48.6112 49.6452 48.5889 39.7966V34.6091H45.7164H42.8661L42.7548 41.0496Z" fill="white"/>
<path d="M0.757758 30V23.4545H3.3785C3.86003 23.4545 4.26166 23.5259 4.5834 23.6687C4.90513 23.8114 5.14696 24.0096 5.30889 24.2631C5.47083 24.5146 5.55179 24.8043 5.55179 25.1325C5.55179 25.3881 5.50066 25.6129 5.39838 25.8068C5.29611 25.9986 5.15549 26.1562 4.97651 26.2798C4.79966 26.4013 4.59725 26.4876 4.36926 26.5387V26.6026C4.61855 26.6133 4.85186 26.6836 5.06919 26.8136C5.28865 26.9435 5.46656 27.1257 5.60293 27.3601C5.73929 27.5923 5.80747 27.8693 5.80747 28.1911C5.80747 28.5384 5.72118 28.8484 5.5486 29.1211C5.37814 29.3917 5.12566 29.6058 4.79114 29.7635C4.45662 29.9212 4.04433 30 3.55428 30H0.757758ZM2.14164 28.8686H3.26983C3.65549 28.8686 3.93674 28.7951 4.11358 28.6481C4.29043 28.4989 4.37885 28.3008 4.37885 28.0536C4.37885 27.8725 4.33517 27.7127 4.24781 27.5742C4.16046 27.4357 4.03581 27.3271 3.87388 27.2482C3.71408 27.1694 3.52338 27.13 3.30179 27.13H2.14164V28.8686ZM2.14164 26.1935H3.16756C3.35719 26.1935 3.52551 26.1605 3.67253 26.0945C3.82168 26.0263 3.93887 25.9304 4.02409 25.8068C4.11145 25.6832 4.15513 25.5352 4.15513 25.3626C4.15513 25.1261 4.07097 24.9354 3.90264 24.7905C3.73645 24.6456 3.49995 24.5732 3.19313 24.5732H2.14164V26.1935ZM7.65295 30V23.4545H12.0635V24.5955H9.03683V26.1552H11.8365V27.2962H9.03683V28.859H12.0762V30H7.65295ZM19.8839 25.7461H18.4841C18.4585 25.565 18.4063 25.4041 18.3274 25.2635C18.2486 25.1207 18.1474 24.9993 18.0238 24.8991C17.9002 24.799 17.7575 24.7223 17.5956 24.669C17.4358 24.6158 17.2621 24.5891 17.0746 24.5891C16.7358 24.5891 16.4407 24.6733 16.1893 24.8416C15.9379 25.0078 15.7429 25.2507 15.6044 25.5703C15.4659 25.8878 15.3967 26.2734 15.3967 26.7273C15.3967 27.1939 15.4659 27.5859 15.6044 27.9034C15.7451 28.2209 15.9411 28.4606 16.1925 28.6225C16.4439 28.7844 16.7348 28.8654 17.065 28.8654C17.2504 28.8654 17.4219 28.8409 17.5796 28.7919C17.7394 28.7429 17.8811 28.6715 18.0046 28.5778C18.1282 28.4819 18.2305 28.3658 18.3115 28.2294C18.3946 28.093 18.4521 27.9375 18.4841 27.7628L19.8839 27.7692C19.8477 28.0696 19.7571 28.3594 19.6122 28.6385C19.4695 28.9155 19.2767 29.1637 19.0338 29.3832C18.793 29.6005 18.5054 29.7731 18.1708 29.9009C17.8385 30.0266 17.4624 30.0895 17.0426 30.0895C16.4588 30.0895 15.9368 29.9574 15.4766 29.6932C15.0185 29.429 14.6563 29.0465 14.3899 28.5458C14.1257 28.0451 13.9936 27.4389 13.9936 26.7273C13.9936 26.0135 14.1279 25.4062 14.3963 24.9055C14.6648 24.4048 15.0292 24.0234 15.4894 23.7614C15.9496 23.4972 16.4674 23.3651 17.0426 23.3651C17.4219 23.3651 17.7735 23.4183 18.0973 23.5249C18.4233 23.6314 18.712 23.7869 18.9635 23.9915C19.2149 24.1939 19.4194 24.4421 19.5771 24.7362C19.7369 25.0302 19.8392 25.3668 19.8839 25.7461ZM21.572 24.5955V23.4545H26.9477V24.5955H24.9438V30H23.5759V24.5955H21.572ZM29.1064 30H27.6234L29.883 23.4545H31.6664L33.9228 30H32.4398L30.8003 24.9503H30.7491L29.1064 30ZM29.0137 27.4272H32.5165V28.5075H29.0137V27.4272ZM38.6886 26.1871V27.2674H35.7035V26.1871H38.6886ZM40.2976 24.5955V23.4545H45.6733V24.5955H43.6694V30H42.3015V24.5955H40.2976ZM47.5036 30V23.4545H51.9141V24.5955H48.8875V26.1552H51.6872V27.2962H48.8875V28.859H51.9269V30H47.5036ZM55.2569 23.4545L56.5769 25.6854H56.628L57.9544 23.4545H59.5172L57.5197 26.7273L59.562 30H57.9704L56.628 27.766H56.5769L55.2346 30H53.6493L55.698 26.7273L53.6877 23.4545H55.2569ZM66.9022 23.4545V30H65.5343V24.5795H62.888V30H61.5201V23.4545H66.9022ZM69.1648 30V23.4545H71.7472C72.2436 23.4545 72.6666 23.5494 73.016 23.739C73.3654 23.9265 73.6318 24.1875 73.815 24.522C74.0004 24.8544 74.0931 25.2379 74.0931 25.6726C74.0931 26.1072 73.9993 26.4908 73.8118 26.8232C73.6243 27.1555 73.3526 27.4144 72.9968 27.5998C72.6431 27.7852 72.2149 27.8778 71.712 27.8778H70.0661V26.7688H71.4883C71.7546 26.7688 71.9741 26.723 72.1467 26.6314C72.3214 26.5376 72.4514 26.4087 72.5366 26.2447C72.6239 26.0785 72.6676 25.8878 72.6676 25.6726C72.6676 25.4553 72.6239 25.2656 72.5366 25.1037C72.4514 24.9396 72.3214 24.8129 72.1467 24.7234C71.972 24.6317 71.7504 24.5859 71.4819 24.5859H70.5487V30H69.1648ZM75.9369 23.4545H77.3176V27.571H77.3719L80.2004 23.4545H81.4117V30H80.0278V25.8803H79.9799L77.1354 30H75.9369V23.4545ZM89.2753 25.7461H87.8755C87.8499 25.565 87.7977 25.4041 87.7188 25.2635C87.64 25.1207 87.5388 24.9993 87.4152 24.8991C87.2916 24.799 87.1489 24.7223 86.987 24.669C86.8272 24.6158 86.6535 24.5891 86.466 24.5891C86.1272 24.5891 85.8321 24.6733 85.5807 24.8416C85.3293 25.0078 85.1343 25.2507 84.9958 25.5703C84.8573 25.8878 84.7881 26.2734 84.7881 26.7273C84.7881 27.1939 84.8573 27.5859 84.9958 27.9034C85.1365 28.2209 85.3325 28.4606 85.5839 28.6225C85.8353 28.7844 86.1262 28.8654 86.4564 28.8654C86.6418 28.8654 86.8133 28.8409 86.971 28.7919C87.1308 28.7429 87.2725 28.6715 87.396 28.5778C87.5196 28.4819 87.6219 28.3658 87.7029 28.2294C87.786 28.093 87.8435 27.9375 87.8755 27.7628L89.2753 27.7692C89.2391 28.0696 89.1485 28.3594 89.0036 28.6385C88.8609 28.9155 88.6681 29.1637 88.4252 29.3832C88.1844 29.6005 87.8968 29.7731 87.5622 29.9009C87.2299 30.0266 86.8538 30.0895 86.434 30.0895C85.8502 30.0895 85.3282 29.9574 84.868 29.6932C84.4099 29.429 84.0477 29.0465 83.7813 28.5458C83.5171 28.0451 83.385 27.4389 83.385 26.7273C83.385 26.0135 83.5193 25.4062 83.7877 24.9055C84.0562 24.4048 84.4206 24.0234 84.8808 23.7614C85.341 23.4972 85.8588 23.3651 86.434 23.3651C86.8133 23.3651 87.1649 23.4183 87.4887 23.5249C87.8147 23.6314 88.1034 23.7869 88.3549 23.9915C88.6063 24.1939 88.8108 24.4421 88.9685 24.7362C89.1283 25.0302 89.2306 25.3668 89.2753 25.7461ZM91.9829 30.0831C91.772 30.0831 91.5909 30.0085 91.4396 29.8594C91.2905 29.7081 91.2159 29.527 91.2159 29.3161C91.2159 29.1072 91.2905 28.9283 91.4396 28.7791C91.5909 28.63 91.772 28.5554 91.9829 28.5554C92.1875 28.5554 92.3664 28.63 92.5199 28.7791C92.6733 28.9283 92.75 29.1072 92.75 29.3161C92.75 29.4567 92.7137 29.5856 92.6413 29.7028C92.571 29.8178 92.4783 29.9105 92.3633 29.9808C92.2482 30.049 92.1214 30.0831 91.9829 30.0831ZM94.8383 30V23.4545H97.4207C97.9172 23.4545 98.3401 23.5494 98.6896 23.739C99.039 23.9265 99.3053 24.1875 99.4886 24.522C99.6739 24.8544 99.7666 25.2379 99.7666 25.6726C99.7666 26.1072 99.6729 26.4908 99.4854 26.8232C99.2979 27.1555 99.0262 27.4144 98.6704 27.5998C98.3167 27.7852 97.8884 27.8778 97.3856 27.8778H95.7396V26.7688H97.1619C97.4282 26.7688 97.6477 26.723 97.8202 26.6314C97.995 26.5376 98.1249 26.4087 98.2102 26.2447C98.2975 26.0785 98.3412 25.8878 98.3412 25.6726C98.3412 25.4553 98.2975 25.2656 98.2102 25.1037C98.1249 24.9396 97.995 24.8129 97.8202 24.7234C97.6455 24.6317 97.4239 24.5859 97.1555 24.5859H96.2222V30H94.8383ZM104.199 24.1577H105.663C106.187 24.1577 106.652 24.2685 107.057 24.4901C107.463 24.7116 107.782 25.0238 108.012 25.4265C108.244 25.8271 108.36 26.2979 108.36 26.8391C108.36 27.3633 108.244 27.8203 108.012 28.2102C107.782 28.6001 107.463 28.9038 107.057 29.1211C106.652 29.3363 106.187 29.4439 105.663 29.4439H104.199C103.673 29.4439 103.206 29.3374 102.799 29.1243C102.392 28.9091 102.073 28.6065 101.841 28.2166C101.61 27.8267 101.495 27.3665 101.495 26.8359C101.495 26.2947 101.612 25.8239 101.844 25.4233C102.078 25.0206 102.399 24.7095 102.806 24.4901C103.213 24.2685 103.677 24.1577 104.199 24.1577ZM104.199 25.3146C103.918 25.3146 103.67 25.3711 103.455 25.484C103.242 25.5948 103.075 25.7631 102.956 25.989C102.837 26.2148 102.777 26.4972 102.777 26.8359C102.777 27.1598 102.838 27.4293 102.959 27.6445C103.083 27.8597 103.251 28.0206 103.464 28.1271C103.677 28.2337 103.922 28.2869 104.199 28.2869H105.673C105.952 28.2869 106.196 28.2326 106.405 28.1239C106.615 28.0153 106.778 27.8533 106.894 27.6381C107.011 27.4229 107.069 27.1566 107.069 26.8391C107.069 26.5004 107.011 26.218 106.894 25.9922C106.778 25.7663 106.615 25.5969 106.405 25.484C106.196 25.3711 105.952 25.3146 105.673 25.3146H104.199ZM105.586 23.3395V30.2685H104.273V23.3395H105.586Z" fill="white"/>
</svg>
