<svg width="56" height="56" viewBox="0 0 56 56" fill="none" xmlns="http://www.w3.org/2000/svg">
<path d="M35.7458 7.82349C35.6839 7.82415 35.6221 7.82926 35.561 7.8388C35.4895 7.17423 35.1751 6.55947 34.6781 6.11254C34.1811 5.6656 33.5366 5.41799 32.8682 5.41724H14.0218C13.3561 5.41811 12.714 5.66382 12.2178 6.10756C11.7217 6.5513 11.406 7.16206 11.3311 7.82349C8.29488 7.90552 5.85254 10.1105 5.85254 12.8132V45.828C5.85254 48.581 8.38785 50.821 11.5039 50.821H35.7458C38.8619 50.821 41.3972 48.581 41.3972 45.828V12.8165C41.3972 10.0624 38.8619 7.82349 35.7458 7.82349ZM13.7943 8.12427C13.7943 8.06393 13.8182 8.00607 13.8609 7.9634C13.9036 7.92074 13.9614 7.89677 14.0218 7.89677H32.8682C32.9285 7.89677 32.9864 7.92074 33.029 7.9634C33.0717 8.00607 33.0957 8.06393 33.0957 8.12427V10.2188C33.0957 10.2791 33.0717 10.337 33.029 10.3797C32.9864 10.4223 32.9285 10.4463 32.8682 10.4463H14.0218C13.9614 10.4463 13.9036 10.4223 13.8609 10.3797C13.8182 10.337 13.7943 10.2791 13.7943 10.2188V8.12427ZM38.9166 45.828C38.9166 47.2127 37.4947 48.3436 35.7447 48.3436H11.5039C9.75395 48.3436 8.33207 47.216 8.33207 45.828V12.8165C8.33316 11.4843 9.65551 10.3905 11.3169 10.3085C11.3404 11.0104 11.6356 11.6758 12.1402 12.1643C12.6449 12.6527 13.3194 12.9262 14.0218 12.9269H32.8682C33.5736 12.9263 34.251 12.6506 34.7563 12.1583C35.2616 11.6661 35.555 10.9962 35.5741 10.291C35.631 10.2992 35.6884 10.3036 35.7458 10.3041C37.4958 10.3041 38.9177 11.4307 38.9177 12.8197L38.9166 45.828Z" fill="#2659CF"/>
<path d="M49.2048 8.99171H43.9854C43.6567 8.99171 43.3414 9.12223 43.1088 9.3546C42.8762 9.58697 42.7454 9.90216 42.7451 10.2309V35.6945C42.7488 39.3031 43.6234 42.8574 45.2946 46.0556L45.5003 46.4406C45.6053 46.6411 45.7632 46.8091 45.9569 46.9262C46.1506 47.0434 46.3726 47.1053 46.5989 47.1053C46.8253 47.1053 47.0473 47.0434 47.241 46.9262C47.4347 46.8091 47.5926 46.6411 47.6976 46.4406L47.9 46.0556C49.5712 42.8574 50.4458 39.3031 50.4495 35.6945V10.2309C50.4493 10.0678 50.417 9.90624 50.3543 9.7556C50.2917 9.60496 50.1999 9.46816 50.0843 9.35305C49.9687 9.23793 49.8315 9.14676 49.6805 9.08476C49.5296 9.02275 49.368 8.99113 49.2048 8.99171ZM46.594 42.9362C45.8617 41.0634 45.4166 39.0906 45.2739 37.0847H47.9142C47.7709 39.0905 47.3259 41.0632 46.594 42.9362ZM47.9634 34.6041H45.229V11.4712H47.9634V34.6041Z" fill="#2659CF"/>
<path d="M20.9552 14.6289H14.4923C14.1635 14.6289 13.8482 14.7594 13.6156 14.9918C13.383 15.2242 13.2522 15.5394 13.252 15.8681V22.3322C13.252 22.6611 13.3826 22.9766 13.6152 23.2092C13.8478 23.4418 14.1633 23.5725 14.4923 23.5725H20.9552C21.2842 23.5725 21.5997 23.4418 21.8323 23.2092C22.0649 22.9766 22.1955 22.6611 22.1955 22.3322V15.8681C22.1955 15.7053 22.1635 15.5441 22.1011 15.3936C22.0388 15.2432 21.9474 15.1066 21.8322 14.9915C21.717 14.8764 21.5803 14.7851 21.4298 14.7229C21.2793 14.6607 21.1181 14.6288 20.9552 14.6289ZM19.716 21.0919H15.7326V17.1084H19.716V21.0919Z" fill="#2659CF"/>
<path d="M20.9552 26.2314H14.4923C14.1633 26.2314 13.8478 26.3621 13.6152 26.5947C13.3826 26.8273 13.252 27.1428 13.252 27.4718V33.9347C13.252 34.0976 13.284 34.2589 13.3464 34.4094C13.4087 34.5599 13.5001 34.6966 13.6152 34.8118C13.7304 34.9269 13.8671 35.0183 14.0176 35.0806C14.1681 35.143 14.3294 35.175 14.4923 35.175H20.9552C21.1182 35.1752 21.2795 35.1432 21.43 35.0809C21.5806 35.0186 21.7174 34.9273 21.8326 34.8121C21.9478 34.6969 22.0391 34.5601 22.1014 34.4095C22.1637 34.259 22.1957 34.0976 22.1955 33.9347V27.4718C22.1955 27.1428 22.0649 26.8273 21.8323 26.5947C21.5997 26.3621 21.2842 26.2314 20.9552 26.2314ZM19.716 32.6955H15.7326V28.7121H19.716V32.6955Z" fill="#2659CF"/>
<path d="M32.6176 17.9168H26.2498C26.0839 17.9119 25.9187 17.9403 25.764 18.0004C25.6092 18.0605 25.4681 18.151 25.3491 18.2666C25.23 18.3822 25.1353 18.5206 25.0706 18.6734C25.006 18.8263 24.9727 18.9906 24.9727 19.1566C24.9727 19.3226 25.006 19.4868 25.0706 19.6397C25.1353 19.7926 25.23 19.9309 25.3491 20.0465C25.4681 20.1621 25.6092 20.2527 25.764 20.3128C25.9187 20.3728 26.0839 20.4013 26.2498 20.3963H32.6165C32.7824 20.4013 32.9476 20.3728 33.1024 20.3128C33.2571 20.2527 33.3982 20.1621 33.5173 20.0465C33.6364 19.9309 33.731 19.7926 33.7957 19.6397C33.8603 19.4868 33.8937 19.3226 33.8937 19.1566C33.8937 18.9906 33.8603 18.8263 33.7957 18.6734C33.731 18.5206 33.6364 18.3822 33.5173 18.2666C33.3982 18.151 33.2571 18.0605 33.1024 18.0004C32.9476 17.9403 32.7824 17.9119 32.6165 17.9168H32.6176Z" fill="#2659CF"/>
<path d="M32.6179 29.4634H26.2501C25.9211 29.4634 25.6056 29.5941 25.373 29.8267C25.1404 30.0593 25.0098 30.3747 25.0098 30.7037C25.0098 31.0326 25.1404 31.3481 25.373 31.5807C25.6056 31.8133 25.9211 31.944 26.2501 31.944H32.6168C32.9457 31.944 33.2612 31.8133 33.4938 31.5807C33.7264 31.3481 33.8571 31.0326 33.8571 30.7037C33.8571 30.3747 33.7264 30.0593 33.4938 29.8267C33.2612 29.5941 32.9457 29.4634 32.6168 29.4634H32.6179Z" fill="#2659CF"/>
<path d="M20.9552 37.835H14.4923C14.1635 37.835 13.8482 37.9655 13.6156 38.1979C13.383 38.4302 13.2522 38.7454 13.252 39.0742V45.5382C13.252 45.8672 13.3826 46.1827 13.6152 46.4153C13.8478 46.6479 14.1633 46.7786 14.4923 46.7786H20.9552C21.2842 46.7786 21.5997 46.6479 21.8323 46.4153C22.0649 46.1827 22.1955 45.8672 22.1955 45.5382V39.0742C22.1955 38.9114 22.1635 38.7501 22.1011 38.5997C22.0388 38.4493 21.9474 38.3126 21.8322 38.1975C21.717 38.0824 21.5803 37.9912 21.4298 37.929C21.2793 37.8668 21.1181 37.8348 20.9552 37.835ZM19.716 44.2968H15.7326V40.3145H19.716V44.2968Z" fill="#2659CF"/>
<path d="M32.6179 41.0659H26.2501C25.9211 41.0659 25.6056 41.1966 25.373 41.4292C25.1404 41.6618 25.0098 41.9773 25.0098 42.3062C25.0098 42.6352 25.1404 42.9507 25.373 43.1833C25.6056 43.4159 25.9211 43.5465 26.2501 43.5465H32.6168C32.9457 43.5465 33.2612 43.4159 33.4938 43.1833C33.7264 42.9507 33.8571 42.6352 33.8571 42.3062C33.8571 41.9773 33.7264 41.6618 33.4938 41.4292C33.2612 41.1966 32.9457 41.0659 32.6168 41.0659H32.6179Z" fill="#2659CF"/>
</svg>
