<svg width="27" height="27" viewBox="0 0 27 27" fill="none" xmlns="http://www.w3.org/2000/svg">
<path d="M25.7553 19.536V23.263C25.7567 23.609 25.6857 23.9515 25.5468 24.2685C25.4079 24.5855 25.2042 24.8701 24.9488 25.104C24.6933 25.3379 24.3918 25.516 24.0634 25.6268C23.735 25.7377 23.387 25.7788 23.0418 25.7477C19.2115 25.3323 15.5323 24.026 12.2998 21.9337C9.2923 20.0263 6.74249 17.4813 4.83141 14.4796C2.7278 11.2386 1.41868 7.54853 1.0101 3.70844C0.978998 3.36489 1.01991 3.01864 1.13022 2.69173C1.24053 2.36483 1.41784 2.06443 1.65085 1.80966C1.88385 1.5549 2.16746 1.35135 2.4836 1.21197C2.79974 1.07259 3.1415 1.00045 3.48711 1.00012H7.22129C7.82536 0.994186 8.41099 1.20769 8.86901 1.60084C9.32703 1.99398 9.6262 2.53995 9.71074 3.13696C9.86835 4.3297 10.1607 5.50081 10.5821 6.62796C10.7495 7.07262 10.7858 7.55589 10.6865 8.02048C10.5872 8.48508 10.3566 8.91153 10.0219 9.24931L8.44112 10.8271C10.2131 13.9374 12.7933 16.5126 15.9095 18.2812L17.4903 16.7034C17.8287 16.3694 18.256 16.1392 18.7215 16.0401C19.187 15.941 19.6711 15.9772 20.1167 16.1443C21.246 16.5649 22.4193 16.8567 23.6143 17.014C24.219 17.0991 24.7712 17.4031 25.1659 17.8681C25.5607 18.3331 25.7704 18.9267 25.7553 19.536Z" stroke="#2659CF" stroke-width="2" stroke-linecap="round" stroke-linejoin="round"/>
<path d="M16 5.96939C17.2158 6.20614 18.3331 6.7996 19.209 7.67381C20.0849 8.54802 20.6795 9.66322 20.9167 10.8767M16 1C18.5259 1.28007 20.8813 2.40904 22.6795 4.20154C24.4777 5.99404 25.6118 8.34353 25.8956 10.8642" stroke="#608DF3" stroke-width="2" stroke-linecap="round" stroke-linejoin="round"/>
</svg>
