<svg width="33" height="33" viewBox="0 0 33 33" fill="none" xmlns="http://www.w3.org/2000/svg">
<g clip-path="url(#clip0_136_84)">
<path d="M22 19.25C21.9113 19.25 21.8219 19.2335 21.7367 19.1977C21.4796 19.0919 21.3125 18.8403 21.3125 18.5625V13.75H19.25C18.8698 13.75 18.5625 13.4427 18.5625 13.0625C18.5625 12.6823 18.8698 12.375 19.25 12.375H22C22.3802 12.375 22.6875 12.6823 22.6875 13.0625V16.9029L27.0139 12.5764C27.1425 12.4472 27.3171 12.375 27.5 12.375H31.625V1.375H12.375V6.1875C12.375 6.56769 12.0677 6.875 11.6875 6.875C11.3073 6.875 11 6.56769 11 6.1875V0.6875C11 0.307313 11.3073 0 11.6875 0H32.3125C32.6927 0 33 0.307313 33 0.6875V13.0625C33 13.4427 32.6927 13.75 32.3125 13.75H27.7846L22.4861 19.0486C22.3548 19.1799 22.1787 19.25 22 19.25Z" fill="#2659CF"/>
<path d="M22 32.9998H0V30.265C0 28.6026 1.05187 27.11 2.61869 26.5511L7.59894 24.7718V22.3037H8.97394V25.7412L3.08 27.8456C2.06044 28.21 1.375 29.1821 1.375 30.265V31.6248H20.625V30.265C20.625 29.1821 19.9402 28.21 18.9207 27.8449L13.0267 25.7405V22.1167H14.4017V24.7718L19.3834 26.5511C20.9488 27.1107 22 28.6026 22 30.265V32.9998Z" fill="#2659CF"/>
<path d="M10.8643 23.7728C7.49284 23.7728 4.74902 20.5423 4.74902 16.5713C4.74902 12.6017 7.49215 9.37109 10.8643 9.37109C14.2365 9.37109 16.9796 12.601 16.9796 16.5713C16.979 20.5423 14.2358 23.7728 10.8643 23.7728ZM10.8643 10.7468C8.25046 10.7468 6.12402 13.36 6.12402 16.572C6.12402 19.7847 8.25046 22.3985 10.8643 22.3985C13.4782 22.3985 15.6046 19.7847 15.6046 16.572C15.604 13.36 13.4775 10.7468 10.8643 10.7468Z" fill="#2659CF"/>
<path d="M14.8331 16.8116C13.542 16.8116 12.5163 16.2637 11.6445 15.11C10.6724 16.0471 9.07187 16.7167 7.60819 16.7167C6.71856 16.7167 5.94925 16.5311 5.1875 16.1324L5.8255 14.9148C6.38994 15.2104 6.93994 15.3417 7.60819 15.3417C8.95706 15.3417 10.6146 14.5195 11.0862 13.6161L11.6686 12.501L12.2928 13.5934C13.1941 15.1719 14.0982 15.6463 15.6196 15.3548C15.7716 15.3259 15.9104 15.3245 16.0452 15.3245C16.0912 15.3245 16.138 15.3273 16.1882 15.3211L16.3546 16.6851C16.2425 16.6995 16.1387 16.7002 16.0321 16.6995C15.984 16.6975 15.9317 16.6947 15.8774 16.705C15.5117 16.7752 15.1638 16.8116 14.8331 16.8116Z" fill="#2659CF"/>
<path d="M25.4375 6.875C25.0573 6.875 24.75 7.183 24.75 7.5625C24.75 7.942 25.0573 8.25 25.4375 8.25C25.8177 8.25 26.125 7.942 26.125 7.5625C26.125 7.183 25.8177 6.875 25.4375 6.875Z" fill="#2659CF"/>
<path d="M22 6.875C21.6198 6.875 21.3125 7.183 21.3125 7.5625C21.3125 7.942 21.6198 8.25 22 8.25C22.3802 8.25 22.6875 7.942 22.6875 7.5625C22.6875 7.183 22.3802 6.875 22 6.875Z" fill="#2659CF"/>
<path d="M18.5625 6.875C18.1823 6.875 17.875 7.183 17.875 7.5625C17.875 7.942 18.1823 8.25 18.5625 8.25C18.9427 8.25 19.25 7.942 19.25 7.5625C19.25 7.183 18.9427 6.875 18.5625 6.875Z" fill="#2659CF"/>
</g>
<defs>
<clipPath id="clip0_136_84">
<rect width="33" height="33" fill="white"/>
</clipPath>
</defs>
</svg>
