<svg width="144" height="144" viewBox="0 0 144 144" fill="none" xmlns="http://www.w3.org/2000/svg">
<path d="M125.2 24.9816C137.012 38.3461 143.361 55.6665 142.984 73.4985C142.608 91.3305 135.534 108.368 123.169 121.222C110.804 134.076 94.0536 141.805 76.2496 142.873C58.4457 143.94 40.8921 138.268 27.0797 126.983C13.2673 115.699 4.20803 99.6292 1.70348 81.9699C-0.80107 64.3107 3.43258 46.3557 13.5625 31.6756C23.6924 16.9955 38.9765 6.66573 56.3752 2.7406C73.7738 -1.18452 92.0125 1.58253 107.464 10.4915" stroke="#2659CF" stroke-width="2"/>
<path d="M73.6079 27.2055C73.1324 26.3923 72.3967 26 71.5001 26C70.5137 26 69.8449 26.4305 69.3923 27.2055C51.3654 58.3203 42.3037 78.4702 42.3037 87.7988C42.3037 93.0899 43.5877 97.9886 46.2054 102.466C48.8347 106.963 52.3949 110.494 56.8793 113.096C61.364 115.699 66.253 117 71.5001 117C76.7471 117 81.6364 115.699 86.1208 113.096C90.6062 110.494 94.132 106.944 96.7497 102.466C99.379 97.9694 100.697 93.0899 100.697 87.7988C100.696 78.4702 91.6998 58.282 73.6079 27.2055ZM92.4892 99.9978C90.2914 103.72 87.3225 106.619 83.6092 108.791C79.8768 110.972 75.8507 112.063 71.5001 112.063C67.1047 112.063 63.0334 110.972 59.3011 108.791C55.5887 106.619 52.6466 103.729 50.466 99.9978C48.296 96.2854 47.2369 92.2001 47.2369 87.7988C47.2369 85.3303 48.076 81.7901 49.7485 77.1306C51.4401 72.4136 53.6378 67.3426 56.2967 61.9273C61.6663 50.9721 66.6569 41.7391 71.5001 33.4438C76.3433 41.7392 81.2977 50.9913 86.6595 61.9274C89.3261 67.3619 91.521 72.4234 93.2067 77.1307C94.884 81.7999 95.7633 85.3303 95.7633 87.7989C95.7633 92.2001 94.687 96.276 92.4892 99.9978Z" fill="#2659CF"/>
<path d="M80.7843 70.8064C79.7634 71.6674 79.6045 73.2844 80.5154 74.2987C80.7268 74.5378 81.4464 75.3798 82.7572 77.5327C83.4194 78.6139 83.9503 79.7811 84.4171 81.025C85.3405 83.503 86.2245 86.8902 85.6275 89.9997C84.7443 94.6018 81.5602 98.6298 75.806 101.969C74.6081 102.668 74.1966 104.036 74.9084 105.251C75.407 106.093 76.0748 106.552 77.0173 106.552C77.4201 106.552 77.8239 106.456 78.2726 106.275C85.4036 102.199 89.4671 97.0799 90.5166 90.8512C92.2474 80.5752 84.5903 71.438 84.2821 71.0743C83.379 70.0026 81.8271 69.9165 80.7843 70.8064Z" fill="#2659CF"/>
</svg>
