<svg width="27" height="27" viewBox="0 0 27 27" fill="none" xmlns="http://www.w3.org/2000/svg">
<path d="M15.6582 15.6982H17.7021C17.6611 16.3682 17.4766 16.9629 17.1484 17.4824C16.8249 18.002 16.3714 18.4076 15.7881 18.6992C15.2093 18.9909 14.512 19.1367 13.6963 19.1367C13.0583 19.1367 12.4863 19.0273 11.9805 18.8086C11.4746 18.5853 11.0417 18.2663 10.6816 17.8516C10.3262 17.4368 10.055 16.9355 9.86816 16.3477C9.68132 15.7598 9.58789 15.1012 9.58789 14.3721V13.6816C9.58789 12.9525 9.68359 12.2939 9.875 11.7061C10.071 11.1136 10.349 10.61 10.709 10.1953C11.0736 9.7806 11.5088 9.46159 12.0146 9.23828C12.5205 9.01497 13.0856 8.90332 13.71 8.90332C14.5394 8.90332 15.2389 9.05371 15.8086 9.35449C16.3828 9.65527 16.8271 10.07 17.1416 10.5986C17.4606 11.1273 17.652 11.7288 17.7158 12.4033H15.665C15.6423 12.0023 15.5625 11.6628 15.4258 11.3848C15.2891 11.1022 15.0817 10.8903 14.8037 10.749C14.5303 10.6032 14.1657 10.5303 13.71 10.5303C13.3682 10.5303 13.0697 10.5941 12.8145 10.7217C12.5592 10.8493 12.3451 11.043 12.1719 11.3027C11.9987 11.5625 11.8688 11.8906 11.7822 12.2871C11.7002 12.679 11.6592 13.1393 11.6592 13.668V14.3721C11.6592 14.887 11.6979 15.3405 11.7754 15.7324C11.8529 16.1198 11.9714 16.4479 12.1309 16.7168C12.2949 16.9811 12.5046 17.1816 12.7598 17.3184C13.0195 17.4505 13.3317 17.5166 13.6963 17.5166C14.1247 17.5166 14.4779 17.4482 14.7559 17.3115C15.0339 17.1748 15.2458 16.972 15.3916 16.7031C15.542 16.4342 15.6309 16.0993 15.6582 15.6982Z" fill="white"/>
<circle cx="13.5" cy="13.5" r="12.5" stroke="white" stroke-width="2"/>
</svg>
