<svg width="39" height="39" viewBox="0 0 39 39" fill="none" xmlns="http://www.w3.org/2000/svg">
<path d="M33.362 7.24873C36.4397 10.731 38.094 15.2441 37.9959 19.8905C37.8978 24.5368 36.0545 28.9761 32.8327 32.3254C29.6108 35.6747 25.2464 37.6887 20.6073 37.9668C15.9682 38.245 11.3944 36.767 7.79541 33.8266C4.19641 30.8863 1.8359 26.6991 1.1833 22.0978C0.530707 17.4965 1.63384 12.818 4.27333 8.99294C6.91281 5.16783 10.8953 2.47628 15.4287 1.45354C19.9622 0.430793 24.7145 1.15179 28.7406 3.47313" stroke="#2659CF" stroke-width="2"/>
<path d="M21.0803 12.4545L20.8033 22.6392H18.2038L17.9197 12.4545H21.0803ZM19.5036 27.1847C19.0348 27.1847 18.6323 27.0189 18.2962 26.6875C17.96 26.3513 17.7943 25.9489 17.799 25.4801C17.7943 25.0161 17.96 24.6184 18.2962 24.2869C18.6323 23.9555 19.0348 23.7898 19.5036 23.7898C19.9534 23.7898 20.3487 23.9555 20.6896 24.2869C21.0305 24.6184 21.2034 25.0161 21.2081 25.4801C21.2034 25.7926 21.1205 26.0791 20.9595 26.3395C20.8033 26.5952 20.5973 26.8011 20.3416 26.9574C20.0859 27.1089 19.8066 27.1847 19.5036 27.1847Z" fill="#2659CF"/>
</svg>
