<svg width="51" height="36" viewBox="0 0 51 36" fill="none" xmlns="http://www.w3.org/2000/svg">
<path d="M47.7598 4.5569C47.6626 4.42987 47.5406 4.32276 47.4009 4.24168C47.2611 4.1606 47.1064 4.10715 46.9454 4.08437C46.7845 4.06159 46.6205 4.06994 46.4629 4.10894C46.3052 4.14793 46.157 4.21681 46.0267 4.31164L26.0594 18.8341C25.988 18.8862 25.9011 18.9145 25.8118 18.9145C25.7225 18.9145 25.6357 18.8862 25.5643 18.8341L5.98893 4.24731C5.8597 4.15121 5.7123 4.08086 5.55516 4.04027C5.39802 3.99968 5.23421 3.98965 5.07309 4.01074C4.91197 4.03184 4.75669 4.08365 4.61612 4.16321C4.47555 4.24278 4.35243 4.34855 4.25381 4.47447C4.15519 4.6004 4.08299 4.74402 4.04133 4.89713C3.99968 5.05025 3.98938 5.20986 4.01103 5.36685C4.03267 5.52384 4.08585 5.67514 4.16751 5.81211C4.24916 5.94908 4.35771 6.06904 4.48695 6.16514L19.8782 17.6359L4.65613 28.8132C4.525 28.9085 4.41441 29.028 4.33069 29.165C4.24696 29.3019 4.19174 29.4536 4.16818 29.6113C4.14462 29.7691 4.15317 29.9298 4.19335 30.0843C4.23353 30.2388 4.30455 30.3841 4.40236 30.5119C4.50017 30.6397 4.62285 30.7474 4.7634 30.829C4.90394 30.9106 5.0596 30.9644 5.22149 30.9873C5.38338 31.0103 5.54832 31.002 5.7069 30.9628C5.86549 30.9237 6.0146 30.8545 6.14574 30.7592L21.9207 19.1557L24.0581 20.7639C24.5565 21.1357 25.1656 21.3391 25.7932 21.3434C26.4209 21.3478 27.0329 21.1528 27.5366 20.7881L29.7814 19.1557L45.742 30.7592C45.8723 30.8539 46.0205 30.9228 46.1782 30.9617C46.3358 31.0007 46.4997 31.009 46.6607 30.9863C46.8216 30.9635 46.9764 30.9101 47.1161 30.829C47.2558 30.748 47.3778 30.6409 47.4751 30.5139C47.5723 30.3869 47.643 30.2425 47.683 30.0889C47.723 29.9353 47.7315 29.7756 47.7081 29.6188C47.6848 29.462 47.6299 29.3112 47.5468 29.175C47.4636 29.0389 47.3537 28.92 47.2234 28.8253L31.8487 17.6319L47.5081 6.23349C47.7678 6.04238 47.9399 5.75929 47.987 5.44551C48.0341 5.13172 47.9525 4.81248 47.7598 4.5569Z" fill="white"/>
<path d="M45.0234 0H5.97656C4.39148 0 2.87132 0.632141 1.75049 1.75736C0.629672 2.88258 0 4.4087 0 6L0 30C0 31.5913 0.629672 33.1174 1.75049 34.2426C2.87132 35.3679 4.39148 36 5.97656 36H45.0234C46.6085 36 48.1287 35.3679 49.2495 34.2426C50.3703 33.1174 51 31.5913 51 30V6C51 4.4087 50.3703 2.88258 49.2495 1.75736C48.1287 0.632141 46.6085 0 45.0234 0ZM48.6094 30C48.6094 30.9548 48.2316 31.8705 47.5591 32.5456C46.8866 33.2207 45.9745 33.6 45.0234 33.6H5.97656C5.02551 33.6 4.11342 33.2207 3.44092 32.5456C2.76843 31.8705 2.39062 30.9548 2.39062 30V6C2.39062 5.04522 2.76843 4.12955 3.44092 3.45442C4.11342 2.77928 5.02551 2.4 5.97656 2.4H45.0234C45.9745 2.4 46.8866 2.77928 47.5591 3.45442C48.2316 4.12955 48.6094 5.04522 48.6094 6V30Z" fill="white"/>
</svg>
