<svg width="38" height="38" viewBox="0 0 38 38" fill="none" xmlns="http://www.w3.org/2000/svg">
<path d="M27.8484 38C26.3698 37.989 24.8978 37.8034 23.4628 37.4471C18.5072 36.2514 13.4042 33.2183 9.09604 28.9064C4.78791 24.5945 1.75105 19.4906 0.555403 14.5397C-0.703575 9.33177 0.194345 4.8762 3.08092 1.98962L3.90512 1.16543C4.65291 0.419136 5.66622 0 6.7227 0C7.77917 0 8.79249 0.419136 9.54028 1.16543L14.2766 5.90077C15.0233 6.64832 15.4428 7.66173 15.4428 8.71835C15.4428 9.77498 15.0233 10.7884 14.2766 11.5359L11.4788 14.3327C12.82 16.6862 14.6442 19.0416 16.8002 21.1976C18.9562 23.3535 21.3134 25.1786 23.666 26.5199L26.4628 23.7221C26.8327 23.352 27.272 23.0584 27.7554 22.8581C28.2389 22.6578 28.757 22.5547 29.2803 22.5547C29.8036 22.5547 30.3218 22.6578 30.8053 22.8581C31.2887 23.0584 31.728 23.352 32.0979 23.7221L36.8333 28.4575C37.5802 29.2047 37.9998 30.218 37.9998 31.2746C37.9998 32.3311 37.5802 33.3444 36.8333 34.0917L36.0081 34.9159C33.9732 36.9546 31.1565 38 27.8484 38ZM6.7227 2.83367C6.57178 2.83292 6.42224 2.86229 6.28283 2.92007C6.14341 2.97785 6.01693 3.06287 5.91079 3.17015L5.08565 3.99435C2.92402 6.15597 2.29264 9.66542 3.30776 13.8705C4.38243 18.3252 7.14897 22.9537 11.097 26.9008C15.045 30.8478 19.6726 33.6115 24.1282 34.69C28.3342 35.7051 31.8418 35.0737 34.0034 32.9121L34.8276 32.0879C35.0429 31.8724 35.1639 31.5802 35.1639 31.2755C35.1639 30.9709 35.0429 30.6787 34.8276 30.4631L30.0932 25.7278C29.8777 25.5125 29.5855 25.3915 29.2808 25.3915C28.9761 25.3915 28.6839 25.5125 28.4684 25.7278L24.9231 29.2732C24.7103 29.486 24.4354 29.6257 24.138 29.6719C23.8407 29.7181 23.5363 29.6685 23.269 29.5303C20.3626 28.0274 17.4325 25.8393 14.7955 23.2023C12.1584 20.5652 9.97506 17.6371 8.46844 14.7306C8.33009 14.4634 8.28033 14.1591 8.32638 13.8618C8.37243 13.5644 8.51189 13.2894 8.72459 13.0766L12.2709 9.53121C12.4862 9.31569 12.6072 9.02349 12.6072 8.71883C12.6072 8.41416 12.4862 8.12196 12.2709 7.90644L7.53555 3.17015C7.42908 3.06306 7.3024 2.97817 7.16286 2.9204C7.02333 2.86264 6.87371 2.83316 6.7227 2.83367Z" fill="white"/>
<path d="M29.3629 20.9555C28.9869 20.9555 28.6263 20.8061 28.3604 20.5402C28.0945 20.2743 27.9452 19.9137 27.9452 19.5377C27.9424 17.0505 26.9532 14.6659 25.1946 12.9071C23.4359 11.1483 21.0515 10.1589 18.5643 10.1558C18.1882 10.1558 17.8276 10.0065 17.5617 9.74059C17.2959 9.47471 17.1465 9.1141 17.1465 8.73808C17.1465 8.36207 17.2959 8.00145 17.5617 7.73557C17.8276 7.46968 18.1882 7.32031 18.5643 7.32031C25.3005 7.32031 30.7807 12.8024 30.7807 19.5377C30.7807 19.9137 30.6313 20.2743 30.3654 20.5402C30.0996 20.8061 29.7389 20.9555 29.3629 20.9555Z" fill="white"/>
<path d="M35.3554 20.9555C34.9793 20.9555 34.6187 20.8061 34.3528 20.5402C34.087 20.2743 33.9376 19.9137 33.9376 19.5377C33.9376 11.0604 27.0378 4.16342 18.5643 4.16342C18.1882 4.16342 17.8276 4.01405 17.5617 3.74816C17.2959 3.48228 17.1465 3.12167 17.1465 2.74565C17.1465 2.36963 17.2959 2.00902 17.5617 1.74314C17.8276 1.47725 18.1882 1.32788 18.5643 1.32788C28.6049 1.32788 36.7731 9.49706 36.7731 19.5377C36.7731 19.9137 36.6238 20.2743 36.3579 20.5402C36.092 20.8061 35.7314 20.9555 35.3554 20.9555Z" fill="white"/>
</svg>
