<svg width="56" height="56" viewBox="0 0 56 56" fill="none" xmlns="http://www.w3.org/2000/svg">
<path d="M49 28.35C49 25.55 46.8125 24.0625 43.75 24.0625H34.9125C35.525 21.7 35.875 19.425 35.875 17.5C35.875 9.8875 33.775 8.3125 31.9375 8.3125C30.7125 8.3125 29.8375 8.4 28.6125 9.1875C28.2625 9.3625 28.0875 9.7125 28 10.0625L26.6875 17.15C25.2875 20.9125 21.7 24.15 18.8125 26.3375V45.0625C19.775 45.0625 21 45.5875 22.1375 46.2C23.5375 46.9 25.025 47.6 26.6875 47.6H39.2C41.825 47.6 43.75 45.5 43.75 43.6625C43.75 43.3125 43.75 42.9625 43.6625 42.7C45.325 42.0875 46.375 40.6875 46.375 39.1125C46.375 38.325 46.2 37.625 45.9375 37.1C46.9 36.4 47.95 35.2625 47.95 33.8625C47.95 33.1625 47.6 32.2875 47.075 31.675C48.2125 30.8 49 29.575 49 28.35ZM46.2875 28.35C46.2875 30.0125 44.5375 30.1875 44.275 30.975C44.0125 31.85 45.325 32.2 45.325 33.775C45.325 35.4375 43.3125 35.4375 43.05 36.225C42.7 37.1875 43.6625 37.5375 43.6625 39.1125C43.6625 39.2 43.6625 39.2875 43.6625 39.375C43.4 40.6875 41.3875 40.775 41.0375 41.3C40.6875 41.9125 41.125 42.2625 41.125 43.6625C41.125 44.45 40.25 44.975 39.2 44.975H26.6875C25.725 44.975 24.5 44.45 23.3625 43.8375C22.3125 43.3125 21.2625 42.7875 20.125 42.525V28.6125C23.3625 26.1625 27.5625 22.4 29.225 17.85C29.225 17.7625 29.225 17.675 29.3125 17.675L30.5375 11.1125C30.975 10.9375 31.325 10.9375 32.025 10.9375C32.2875 10.9375 33.3375 12.5125 33.3375 17.5C33.3375 19.425 32.9875 21.6125 32.2875 24.0625H31.9375C31.2375 24.0625 30.625 24.675 30.625 25.375C30.625 26.075 31.2375 26.6875 31.9375 26.6875H43.75C45.0625 26.6875 46.2875 27.3 46.2875 28.35Z" fill="#2659CF"/>
<path d="M17.5 47.6875H9.625C8.1375 47.6875 7 46.55 7 45.0625V26.6875C7 25.2 8.1375 24.0625 9.625 24.0625H17.5C18.9875 24.0625 20.125 25.2 20.125 26.6875V45.0625C20.125 46.55 18.9875 47.6875 17.5 47.6875ZM9.625 26.6875V45.0625H17.5V26.6875H9.625Z" fill="#2659CF"/>
</svg>
