<svg width="56" height="56" viewBox="0 0 56 56" fill="none" xmlns="http://www.w3.org/2000/svg">
<path d="M47.6 15.3999C47.6 11.5339 44.466 8.3999 40.6 8.3999H15.4C11.534 8.3999 8.40002 11.5339 8.40002 15.3999V40.5999C8.40002 44.4659 11.534 47.5999 15.4 47.5999H26.8792C26.4258 46.7129 26.0558 45.776 25.7797 44.7999H15.4C13.0804 44.7999 11.2 42.9194 11.2 40.5999V19.5999H44.8V25.7796C45.7761 26.0557 46.713 26.4257 47.6 26.8791V15.3999ZM15.4 11.1999H40.6C42.9195 11.1999 44.8 13.0803 44.8 15.3999V16.7999H11.2V15.3999C11.2 13.0803 13.0804 11.1999 15.4 11.1999Z" fill="#2659CF"/>
<path d="M40.6 53.2C47.5588 53.2 53.2 47.5588 53.2 40.6C53.2 33.6412 47.5588 28 40.6 28C33.6412 28 28 33.6412 28 40.6C28 47.5588 33.6412 53.2 40.6 53.2ZM39.2 35C39.2 34.2269 39.8269 33.6 40.6 33.6C41.3731 33.6 42 34.2269 42 35V39.2H44.8C45.5731 39.2 46.2 39.8269 46.2 40.6C46.2 41.3731 45.5731 42 44.8 42H40.6C39.8269 42 39.2 41.3731 39.2 40.6V35Z" fill="#2659CF"/>
</svg>
