<svg width="60" height="60" viewBox="0 0 60 60" fill="none" xmlns="http://www.w3.org/2000/svg">
<path d="M38.5178 25.5342L20.3385 39.4078C19.9773 39.6968 19.8569 40.2749 20.2181 40.6218C20.3987 40.853 20.6395 40.9686 20.9404 40.9686C21.121 40.9686 21.3618 40.9108 21.4822 40.7952L39.6615 26.9215C40.0227 26.6325 40.1431 26.0544 39.7819 25.7076C39.4809 25.3029 38.9392 25.2451 38.5178 25.5342Z" fill="#2659CF"/>
<path d="M25.2141 31.7196C25.4549 31.7196 25.6957 31.7196 25.9365 31.6618C28.4045 31.315 30.1502 29.0605 29.7289 26.6326C29.5483 25.4765 28.8861 24.4359 27.923 23.7422C26.9598 23.0486 25.7559 22.7595 24.552 22.933C23.348 23.1064 22.2645 23.7422 21.5421 24.6672C20.8198 25.5921 20.5188 26.7482 20.6994 27.9043C21.0606 30.1588 23.047 31.7196 25.2141 31.7196ZM24.7927 24.725C24.9131 24.725 25.0937 24.6672 25.2141 24.6672C26.5384 24.6672 27.7424 25.5921 27.923 26.9216C28.1637 28.3668 27.1404 29.6964 25.6355 29.9276C24.1306 30.1588 22.7461 29.1761 22.5053 27.7309C22.2645 26.2858 23.348 24.9562 24.7927 24.725Z" fill="#2659CF"/>
<path d="M34.8454 34.6099C32.3172 34.6099 30.2705 36.5753 30.2705 39.0032C30.2705 41.4311 32.3172 43.3965 34.8454 43.3965C37.3737 43.3965 39.4204 41.4311 39.4204 39.0032C39.3602 36.5753 37.3135 34.6099 34.8454 34.6099ZM34.8454 41.6045C33.3405 41.6045 32.0764 40.3906 32.0764 38.9454C32.0764 37.5002 33.3405 36.2863 34.8454 36.2863C36.3503 36.2863 37.6145 37.5002 37.6145 38.9454C37.5543 40.4484 36.3503 41.6045 34.8454 41.6045Z" fill="#2659CF"/>
<path d="M34.4769 5.12163L39.1776 14.8334C39.8492 16.452 41.4161 17.6081 43.2068 17.8393L53.5037 19.458C57.7567 20.1517 59.5475 25.4701 56.4137 28.7074L49.0268 36.1066C47.6837 37.2627 47.236 39.1126 47.4599 40.9625L49.2506 51.5992C49.9222 55.9926 45.4453 59.4609 41.6399 57.38L32.4623 52.2929C30.8954 51.368 29.1046 51.368 27.5377 52.2929L18.3601 57.38C14.5547 59.4609 10.0778 55.9926 10.7494 51.5992L12.5401 40.9625C12.7639 39.1126 12.3163 37.494 10.9732 36.1066L3.58631 28.7074C0.452495 25.4701 2.24329 20.1517 6.49634 19.458L16.7931 17.8393C18.5839 17.6081 19.927 16.452 20.8224 14.8334L25.5231 5.12163C27.09 0.959457 32.4623 0.959457 34.4769 5.12163Z" stroke="#2659CF" stroke-width="3" stroke-miterlimit="10"/>
</svg>
