<svg width="56" height="56" viewBox="0 0 56 56" fill="none" xmlns="http://www.w3.org/2000/svg">
<g clip-path="url(#clip0_11_350)">
<path d="M31.5625 13.75H20.875V26.8125H17.3125V29.1875H20.875V32.75H17.3125V35.125H20.875V42.25H23.25V35.125H33.9375V32.75H23.25V29.1875H31.5625C33.4515 29.1854 35.2626 28.434 36.5983 27.0983C37.9341 25.7626 38.6854 23.9515 38.6875 22.0625V20.875C38.6854 18.986 37.9341 17.1749 36.5983 15.8392C35.2626 14.5034 33.4515 13.7521 31.5625 13.75ZM36.3125 22.0625C36.3111 23.3218 35.8102 24.5292 34.9197 25.4197C34.0292 26.3102 32.8218 26.8111 31.5625 26.8125H23.25V16.125H31.5625C32.8218 16.1264 34.0292 16.6273 34.9197 17.5178C35.8102 18.4083 36.3111 19.6157 36.3125 20.875V22.0625Z" fill="#2659CF"/>
</g>
<circle cx="28" cy="28" r="26.5" stroke="#2659CF" stroke-width="3"/>
<defs>
<clipPath id="clip0_11_350">
<rect width="38" height="38" fill="white" transform="translate(9 9)"/>
</clipPath>
</defs>
</svg>
