<svg width="56" height="56" viewBox="0 0 56 56" fill="none" xmlns="http://www.w3.org/2000/svg">
<path d="M52.5777 38.5886L46.6811 37.7502L44.0294 32.378C43.6985 31.707 43.0281 31.2902 42.2798 31.2902C41.5309 31.2902 40.8604 31.7069 40.5288 32.378L40.0538 33.3482C40.0538 33.3482 38.4774 31.8498 38.3775 31.803C37.0477 31.1787 30.5008 29.686 29.7973 29.4679C28.4033 29.0344 27.2689 27.9733 26.7264 26.6397C31.0278 24.7688 33.3077 19.9332 33.6711 15.0711V14.343H35.4993C36.0503 14.343 36.4961 13.8966 36.4961 13.3462C36.4961 12.7958 36.0503 12.3493 35.4993 12.3493H34.2533L34.115 10.9476C33.7885 7.64818 31.5237 4.90823 28.3449 3.96585L26.5278 3.42718V2.74709C26.5278 2.19671 26.082 1.75024 25.5309 1.75024H19.8575C19.3078 1.75024 18.862 2.1954 18.8607 2.74446L18.8594 3.42073L17.0007 3.97231C13.8349 4.91074 11.572 7.63899 11.2345 10.9202L11.0872 12.3493H9.86669C9.31632 12.3493 8.86985 12.7958 8.86985 13.3462C8.86985 13.8966 9.31632 14.343 9.86669 14.343H11.7423L11.7436 15.1465C12.1031 19.9204 14.357 24.7149 18.609 26.6068C18.0723 27.969 16.9905 29.0308 15.5653 29.4707C14.3543 29.8445 9.68371 30.8673 9.68371 30.8673C9.67529 30.8686 9.66686 30.8653 9.65844 30.8673C9.00886 31.0087 3.29391 32.3872 2.62421 37.0299C2.22772 39.8024 1.76561 42.4437 1.76496 42.4489C1.71432 42.7383 1.79416 43.0356 1.98371 43.2614C2.17325 43.4873 2.45227 43.6171 2.74693 43.6171H31.9871C32.1754 43.6171 32.3415 43.551 32.492 43.4601L35.1775 46.0611L34.1651 51.9655C34.0678 52.5354 34.2235 53.1129 34.5928 53.5504C35.171 54.237 36.1971 54.4446 36.9973 54.0241L42.2598 51.2361L47.562 54.0241C47.8437 54.172 48.1578 54.2499 48.4706 54.2499C49.0462 54.2499 49.5914 53.9955 49.9665 53.5517C50.3358 53.113 50.4922 52.5354 50.3948 51.9656L49.3694 46.0989L53.6591 41.9181C54.1952 41.3951 54.3847 40.6292 54.153 39.918C53.9217 39.2052 53.3182 38.6964 52.5777 38.5886ZM37.3839 33.5395L39.1323 35.2302L37.9096 37.7267L31.9812 38.5886C31.2408 38.6964 30.6372 39.2052 30.4061 39.9177C30.214 40.5083 30.3263 41.1274 30.6716 41.6232H28.8531L31.4899 31.9659C31.7651 32.0314 36.2975 33.0515 37.3839 33.5395ZM27.7784 5.87631C30.1763 6.58757 31.8844 8.6552 32.1311 11.1447L32.2505 12.3492H26.5278V5.50574L27.7784 5.87631ZM24.5342 3.74382V12.3492H20.8337L20.8525 3.74382H24.5342ZM13.2179 11.1252C13.4723 8.64874 15.1798 6.59151 17.568 5.88276L18.8549 5.50115L18.84 12.3491H13.0921L13.2179 11.1252ZM13.7345 15.071V14.3429H31.6787L31.68 14.9958C31.288 20.2084 28.3611 25.4664 22.706 25.4664C17.0509 25.4664 14.124 20.2083 13.7345 15.071ZM22.706 27.4599C23.4549 27.4599 24.1571 27.3749 24.8276 27.238C25.191 28.2024 25.7576 29.0539 26.4799 29.7502L22.7327 32.7933L18.9251 29.7178C19.6313 29.0253 20.1835 28.1829 20.5379 27.2302C21.2218 27.373 21.9396 27.4599 22.706 27.4599ZM17.2416 30.9223L22.1083 34.8518C22.2906 34.9985 22.5126 35.0724 22.7345 35.0724C22.9571 35.0724 23.1797 34.9985 23.3628 34.8492L28.171 30.9449C28.5027 31.1098 29.4398 31.4388 29.5586 31.4726L26.7868 41.6232H17.7958L15.0792 31.6732C15.4822 31.5693 16.8938 31.0987 17.2416 30.9223ZM13.1401 32.1404L15.7295 41.6232H9.43969V32.9899C9.74146 32.8971 12.314 32.3305 13.1401 32.1404ZM4.59766 37.314C4.84036 35.6293 6.16107 34.5156 7.446 33.8172V41.6231H3.92664C4.10055 40.5823 4.3601 38.9715 4.59766 37.314ZM47.9778 44.6709C47.5176 45.1199 47.308 45.765 47.4164 46.3984L48.4366 52.2314L43.1857 49.4694C42.6289 49.1786 41.9325 49.1773 41.3712 49.4707L36.13 52.3028L37.1424 46.3984C37.2515 45.765 37.0411 45.1199 36.5811 44.6709L32.2687 40.5615L38.197 39.6997C38.833 39.6062 39.3821 39.2077 39.6657 38.6327L42.2421 33.2605L44.8932 38.6327C45.1768 39.2077 45.7258 39.6061 46.3624 39.6997L52.2674 40.4901L47.9778 44.6709Z" fill="#2659CF"/>
</svg>
