<svg width="56" height="56" viewBox="0 0 56 56" fill="none" xmlns="http://www.w3.org/2000/svg">
<path d="M55 0H17C16.7348 0 16.4804 0.098333 16.2929 0.273367C16.1054 0.448401 16 0.685798 16 0.933333V8.4H8C7.73478 8.4 7.48043 8.49833 7.29289 8.67337C7.10536 8.8484 7 9.0858 7 9.33333V44.8H1C0.734784 44.8 0.48043 44.8983 0.292893 45.0734C0.105357 45.2484 0 45.4858 0 45.7333V49.4667C0.00206453 51.1988 0.740225 52.8595 2.05253 54.0843C3.36484 55.3091 5.14412 55.9981 7 56H42C43.3256 55.9985 44.5965 55.5064 45.5338 54.6316C46.4712 53.7567 46.9984 52.5706 47 51.3333V47.6H55C55.2652 47.6 55.5196 47.5017 55.7071 47.3266C55.8946 47.1516 56 46.9142 56 46.6667V0.933333C56 0.685798 55.8946 0.448401 55.7071 0.273367C55.5196 0.098333 55.2652 0 55 0ZM7 54.1333C5.6744 54.1319 4.40353 53.6397 3.46619 52.7649C2.52885 51.89 2.00156 50.7039 2 49.4667V46.6667H37V51.3333C37.0022 51.6238 37.0336 51.9134 37.0937 52.1983C37.1119 52.2886 37.1412 52.3739 37.1649 52.4622C37.2139 52.6499 37.2755 52.8346 37.3493 53.0152C37.3893 53.1101 37.4323 53.2019 37.4783 53.2935C37.5621 53.4604 37.6564 53.6224 37.7608 53.7789C37.8148 53.8601 37.8658 53.9418 37.9249 54.0197C37.9527 54.0563 37.9736 54.0976 38.0024 54.1334L7 54.1333ZM45 51.3333C45 52.0759 44.6839 52.7881 44.1213 53.3132C43.5587 53.8383 42.7956 54.1333 42 54.1333C41.2044 54.1333 40.4413 53.8383 39.8787 53.3132C39.3161 52.7881 39 52.0759 39 51.3333V45.7333C39 45.4858 38.8946 45.2484 38.7071 45.0734C38.5196 44.8983 38.2652 44.8 38 44.8H9V10.2667H45V51.3333ZM54 45.7333H47V9.33333C47 9.0858 46.8946 8.8484 46.7071 8.67337C46.5196 8.49833 46.2652 8.4 46 8.4H18V1.86667H54V45.7333Z" fill="#2659CF"/>
<path d="M38 14.9333H16C15.7348 14.9333 15.4804 15.0317 15.2929 15.2067C15.1054 15.3817 15 15.6191 15 15.8667V21.4667C15 21.7142 15.1054 21.9516 15.2929 22.1266C15.4804 22.3017 15.7348 22.4 16 22.4H38C38.2652 22.4 38.5196 22.3017 38.7071 22.1266C38.8946 21.9516 39 21.7142 39 21.4667V15.8667C39 15.6191 38.8946 15.3817 38.7071 15.2067C38.5196 15.0317 38.2652 14.9333 38 14.9333ZM37 20.5333H17V16.8H37V20.5333Z" fill="#2659CF"/>
<path d="M38 26.1333H20C19.7348 26.1333 19.4804 26.2317 19.2929 26.4068C19.1054 26.5819 19 26.8194 19 27.0671C19 27.3147 19.1054 27.5523 19.2929 27.7274C19.4804 27.9025 19.7348 28.0009 20 28.0009H38C38.2652 28.0009 38.5196 27.9025 38.7071 27.7274C38.8946 27.5523 39 27.3147 39 27.0671C39 26.8194 38.8946 26.5819 38.7071 26.4068C38.5196 26.2317 38.2652 26.1333 38 26.1333Z" fill="#2659CF"/>
<path d="M38 31.7334H16C15.7348 31.7334 15.4804 31.8318 15.2929 32.0069C15.1054 32.182 15 32.4195 15 32.6672C15 32.9148 15.1054 33.1524 15.2929 33.3275C15.4804 33.5026 15.7348 33.601 16 33.601H38C38.2652 33.601 38.5196 33.5026 38.7071 33.3275C38.8946 33.1524 39 32.9148 39 32.6672C39 32.4195 38.8946 32.182 38.7071 32.0069C38.5196 31.8318 38.2652 31.7334 38 31.7334Z" fill="#2659CF"/>
<path d="M38 37.3335H16C15.7348 37.3335 15.4804 37.4319 15.2929 37.607C15.1054 37.7821 15 38.0196 15 38.2673C15 38.5149 15.1054 38.7525 15.2929 38.9276C15.4804 39.1027 15.7348 39.2011 16 39.2011H38C38.2652 39.2011 38.5196 39.1027 38.7071 38.9276C38.8946 38.7525 39 38.5149 39 38.2673C39 38.0196 38.8946 37.7821 38.7071 37.607C38.5196 37.4319 38.2652 37.3335 38 37.3335Z" fill="#2659CF"/>
</svg>
